<svg xmlns="http://www.w3.org/2000/svg" viewBox="0 0 400 520" width="400" height="520">
  <rect width="400" height="520" fill="#ff6699"/>
  <!-- Fond pop art jaune -->
  <rect x="10" y="10" width="380" height="500" fill="#ffe100"/>
  <!-- Halo cheveux blonds -->
  <ellipse cx="200" cy="175" rx="150" ry="140" fill="#ffee44"/>
  <!-- Visage -->
  <ellipse cx="200" cy="215" rx="98" ry="115" fill="#f5c8a0"/>
  <!-- Fond ombre visage (côtés) -->
  <path d="M120 200 C108 230 110 270 125 300 C140 270 150 240 145 215Z" fill="#d4956a" opacity="0.4"/>
  <path d="M280 200 C292 230 290 270 275 300 C260 270 250 240 255 215Z" fill="#d4956a" opacity="0.4"/>
  <!-- Yeux bleus pop -->
  <ellipse cx="168" cy="205" rx="20" ry="13" fill="#66aaff"/>
  <ellipse cx="232" cy="205" rx="20" ry="13" fill="#66aaff"/>
  <!-- Paupières turquoise iconic -->
  <path d="M148 200 C158 192 178 192 188 200" fill="#00ccee" stroke="none"/>
  <path d="M212 200 C222 192 242 192 252 200" fill="#00ccee" stroke="none"/>
  <!-- Iris/pupilles -->
  <ellipse cx="168" cy="207" rx="10" ry="10" fill="#1a3a6a"/>
  <ellipse cx="232" cy="207" rx="10" ry="10" fill="#1a3a6a"/>
  <circle cx="163" cy="203" r="4" fill="#000"/>
  <circle cx="227" cy="203" r="4" fill="#000"/>
  <circle cx="160" cy="201" r="2" fill="#fff"/>
  <circle cx="224" cy="201" r="2" fill="#fff"/>
  <!-- Sourcils noirs épais arch -->
  <path d="M145 188 C155 178 185 178 190 185" fill="none" stroke="#111" stroke-width="5" stroke-linecap="round"/>
  <path d="M210 185 C215 178 245 178 255 188" fill="none" stroke="#111" stroke-width="5" stroke-linecap="round"/>
  <!-- Nez -->
  <path d="M196 218 C193 235 190 248 197 255 C204 255 207 248 204 235Z" fill="#d4956a" opacity="0.6"/>
  <!-- Grain de beauté iconic -->
  <circle cx="228" cy="258" r="6" fill="#111"/>
  <!-- Lèvres rouges vif -->
  <path d="M170 280 C180 272 195 270 200 272 C205 270 220 272 230 280 C225 292 210 300 200 300 C190 300 175 292 170 280Z" fill="#ff0033"/>
  <path d="M170 280 C180 275 190 272 200 270 C210 272 220 275 230 280" fill="none" stroke="#cc0022" stroke-width="2"/>
  <path d="M177 280 C185 285 215 285 223 280" fill="none" stroke="#cc0022" stroke-width="1.5"/>
  <!-- Cheveux blonds (mèches) -->
  <path d="M115 160 C100 130 105 100 120 85 C135 75 150 80 160 100" fill="#ffe100" stroke="#e8c800" stroke-width="2"/>
  <path d="M285 160 C300 130 295 100 280 85 C265 75 250 80 240 100" fill="#ffe100" stroke="#e8c800" stroke-width="2"/>
  <path d="M140 100 C150 70 180 60 200 65 C220 60 250 70 260 100" fill="#ffe100" stroke="#e8c800" stroke-width="1.5"/>
  <!-- Cou -->
  <rect x="180" y="325" width="40" height="40" rx="5" fill="#f5c8a0"/>
  <!-- Col / vêtement -->
  <path d="M130 365 C160 350 180 360 200 365 C220 360 240 350 270 365 L280 500 L120 500Z" fill="#ff0088"/>
  <!-- Texte -->
  <text x="200" y="516" font-family="Arial Black, sans-serif" font-size="10" fill="#ff6699" text-anchor="middle" letter-spacing="3" font-weight="900">MARILYN — A. WARHOL, 1964</text>
</svg>
